<?xml version="1.0" encoding="UTF-8"?>
<svg width="512" height="512" viewBox="0 0 512 512" fill="none" xmlns="http://www.w3.org/2000/svg">
  <!-- Background Circle (Earth) -->
  <circle cx="256" cy="256" r="240" fill="url(#earth-gradient)"/>
  
  <!-- Pulse Rings -->
  <circle cx="256" cy="256" r="180" stroke="url(#pulse-gradient)" stroke-width="4" stroke-dasharray="8 8"/>
  <circle cx="256" cy="256" r="210" stroke="url(#pulse-gradient)" stroke-width="3" stroke-dasharray="6 6"/>
  
  <!-- Leaf/Growth Symbol -->
  <path d="M256 140C200 140 160 180 160 236C160 292 200 332 256 332C312 332 352 292 352 236C352 180 312 140 256 140ZM256 300C218 300 192 274 192 236C192 198 218 172 256 172C294 172 320 198 320 236C320 274 294 300 256 300Z" fill="url(#leaf-gradient)"/>
  
  <!-- Gradients -->
  <defs>
    <linearGradient id="earth-gradient" x1="0" y1="0" x2="512" y2="512" gradientUnits="userSpaceOnUse">
      <stop offset="0%" stop-color="#1E88E5"/>
      <stop offset="100%" stop-color="#004D40"/>
    </linearGradient>
    
    <linearGradient id="pulse-gradient" x1="256" y1="76" x2="256" y2="436" gradientUnits="userSpaceOnUse">
      <stop offset="0%" stop-color="#4CAF50" stop-opacity="0.8"/>
      <stop offset="100%" stop-color="#4CAF50" stop-opacity="0.2"/>
    </linearGradient>
    
    <linearGradient id="leaf-gradient" x1="160" y1="140" x2="352" y2="332" gradientUnits="userSpaceOnUse">
      <stop offset="0%" stop-color="#81C784"/>
      <stop offset="100%" stop-color="#2E7D32"/>
    </linearGradient>
  </defs>
</svg> 